# xmcd CD database file
#
# Track frame offsets:
#	150
#	20580
#	35968
#	49110
#	65078
#	84780
#	100025
#	117178
#	136018
#	156230
#	164750
#	183503
#
# Disc length: 2686 seconds
#
# Revision: 2
# Processed by: cddbd v1.5PL3 Copyright (c) Steve Scherf et al.
# Submitted via: CDex 1.51
#
DISCID=a00a7c0c
DTITLE=NEUROTIC OUTSIDERS - Neurotic Outsiders
DYEAR=1996
DGENRE=Hard Rock
TTITLE0=Nasty Ho
TTITLE1=Always Wrong
TTITLE2=Angelina
TTITLE3=Good News
TTITLE4=Batter Way
TTITLE5=Feelings Are Good
TTITLE6=Revolution
TTITLE7=Jerk
TTITLE8=Union
TTITLE9=Janie Jones
TTITLE10=Story Of My Life
TTITLE11=Six Feet Under
EXTD=YEAR: 1996
EXTT0=
EXTT1=
EXTT2=
EXTT3=
EXTT4=
EXTT5=
EXTT6=
EXTT7=
EXTT8=
EXTT9=
EXTT10=
EXTT11=
PLAYORDER=
